<svg xmlns="http://www.w3.org/2000/svg" width="23.533" height="24.186" viewBox="0 0 23.533 24.186"><defs><style>.a{fill:#aaa;}.b,.c{stroke:none;}.c{fill:#707070;}</style></defs><g transform="translate(-409.496 -13.145)"><g transform="matrix(0.966, 0.259, -0.259, 0.966, 414.889, 10.169)"><g class="a" transform="translate(20.113 4.974) rotate(120)"><path class="b" d="M 4.97407341003418 9.352720260620117 L 0.5954248309135437 4.974071502685547 L 4.974058151245117 0.5954383611679077 L 5.093001365661621 0.7143844366073608 L 1.770934820175171 4.036441326141357 L 0.917374849319458 4.889991283416748 L 2.124484777450562 4.889991283416748 L 9.564324378967285 4.889991283416748 L 9.564324378967285 5.058171272277832 L 2.124484777450562 5.058171272277832 L 0.917374849319458 5.058171272277832 L 1.770934820175171 5.911721706390381 L 5.093006134033203 9.233793258666992 L 4.97407341003418 9.352720260620117 Z"/><path class="c" d="M 4.974053859710693 1.9073486328125e-06 C 5.043056011199951 1.9073486328125e-06 5.112048625946045 0.02632045745849609 5.1647047996521 0.07897186279296875 L 5.609484672546387 0.5237617492675781 C 5.714755058288574 0.6290311813354492 5.714755058288574 0.7997217178344727 5.609484672546387 0.9050111770629883 L 2.124485015869141 4.389991283416748 L 9.794744491577148 4.389991283416748 C 9.943624496459961 4.389991283416748 10.06432437896729 4.510701656341553 10.06432437896729 4.659571647644043 L 10.06432437896729 5.288591384887695 C 10.06432437896729 5.437471389770508 9.943624496459961 5.558171272277832 9.794744491577148 5.558171272277832 L 2.124485015869141 5.558171272277832 L 5.609484672546387 9.043171882629395 C 5.714755058288574 9.148451805114746 5.714755058288574 9.319131851196289 5.609484672546387 9.424431800842285 L 5.1647047996521 9.86919116973877 C 5.112069606781006 9.921826362609863 5.043079853057861 9.94814395904541 4.974086284637451 9.94814395904541 C 4.905092239379883 9.94814395904541 4.836094856262207 9.921826362609863 4.783444881439209 9.86919116973877 L 0.07895469665527344 5.164701461791992 C -0.02631473541259766 5.059431552886963 -0.02631473541259766 4.888741493225098 0.07895469665527344 4.783441543579102 L 4.783444881439209 0.07895183563232422 C 4.836073398590088 0.02632331848144531 4.905068397521973 1.9073486328125e-06 4.974053859710693 1.9073486328125e-06 Z"/></g><g class="a" transform="translate(0 20.837) rotate(-60)"><path class="b" d="M 4.97407341003418 9.352720260620117 L 0.5954248309135437 4.974071502685547 L 4.974058151245117 0.5954383611679077 L 5.093001365661621 0.7143844366073608 L 1.770934820175171 4.036441326141357 L 0.917374849319458 4.889991283416748 L 2.124484777450562 4.889991283416748 L 9.564324378967285 4.889991283416748 L 9.564324378967285 5.058171272277832 L 2.124484777450562 5.058171272277832 L 0.917374849319458 5.058171272277832 L 1.770934820175171 5.911721706390381 L 5.093006134033203 9.233793258666992 L 4.97407341003418 9.352720260620117 Z"/><path class="c" d="M 4.974053859710693 1.9073486328125e-06 C 5.043056011199951 1.9073486328125e-06 5.112048625946045 0.02632045745849609 5.1647047996521 0.07897186279296875 L 5.609484672546387 0.5237617492675781 C 5.714755058288574 0.6290311813354492 5.714755058288574 0.7997217178344727 5.609484672546387 0.9050111770629883 L 2.124485015869141 4.389991283416748 L 9.794744491577148 4.389991283416748 C 9.943624496459961 4.389991283416748 10.06432437896729 4.510701656341553 10.06432437896729 4.659571647644043 L 10.06432437896729 5.288591384887695 C 10.06432437896729 5.437471389770508 9.943624496459961 5.558171272277832 9.794744491577148 5.558171272277832 L 2.124485015869141 5.558171272277832 L 5.609484672546387 9.043171882629395 C 5.714755058288574 9.148451805114746 5.714755058288574 9.319131851196289 5.609484672546387 9.424431800842285 L 5.1647047996521 9.86919116973877 C 5.112069606781006 9.921826362609863 5.043079853057861 9.94814395904541 4.974086284637451 9.94814395904541 C 4.905092239379883 9.94814395904541 4.836094856262207 9.921826362609863 4.783444881439209 9.86919116973877 L 0.07895469665527344 5.164701461791992 C -0.02631473541259766 5.059431552886963 -0.02631473541259766 4.888741493225098 0.07895469665527344 4.783441543579102 L 4.783444881439209 0.07895183563232422 C 4.836073398590088 0.02632331848144531 4.905068397521973 1.9073486328125e-06 4.974053859710693 1.9073486328125e-06 Z"/></g></g></g></svg>