<svg xmlns="http://www.w3.org/2000/svg" width="13.969" height="13.97" viewBox="0 0 13.969 13.97"><defs><style>.a{fill:#aaa;}</style></defs><path class="a" d="M12.223,0H1.746A1.748,1.748,0,0,0,0,1.746V9.6A1.748,1.748,0,0,0,1.746,11.35H4.365v2.292a.328.328,0,0,0,.521.265L8.294,11.35h3.929A1.748,1.748,0,0,0,13.969,9.6V1.746A1.748,1.748,0,0,0,12.223,0ZM3.492,6.548a.873.873,0,1,1,.873-.873A.872.872,0,0,1,3.492,6.548Zm3.492,0a.873.873,0,1,1,.873-.873A.872.872,0,0,1,6.985,6.548Zm3.492,0a.873.873,0,1,1,.873-.873A.872.872,0,0,1,10.477,6.548Z"/></svg>